<svg width="88" height="60" viewBox="0 0 88 60" fill="none" xmlns="http://www.w3.org/2000/svg">
<path fill-rule="evenodd" clip-rule="evenodd" d="M13.7967 36.3709L16.8734 11.7142C17.0948 9.94041 17.6797 8.23132 18.5915 6.69375C19.5032 5.15617 20.7223 3.82315 22.1725 2.778C23.6227 1.73284 25.2729 0.997995 27.0199 0.619388C28.767 0.240781 30.5733 0.226545 32.3261 0.577568C36.0397 1.3229 40.2041 2.8309 44.0001 2.8309C47.7961 2.8309 51.9604 1.3229 55.6741 0.577568C57.4265 0.227211 59.2324 0.241955 60.979 0.620876C62.7255 0.999797 64.3751 1.73476 65.8248 2.77985C67.2745 3.82495 68.4932 5.15774 69.4047 6.69497C70.3162 8.2322 70.9009 9.94086 71.1224 11.7142L74.2077 36.3709C79.1304 37.6016 87.3334 39.9849 87.3334 46.3332C87.3334 53.2492 77.7437 55.5286 72.5134 56.6899C65.0687 58.3452 54.9894 59.3332 44.0001 59.3332C33.0107 59.3332 22.9314 58.3452 15.4867 56.6899C10.2521 55.5286 0.666748 53.2492 0.666748 46.3332C0.666748 39.9849 8.86975 37.6016 13.7967 36.3709ZM17.3631 48.2312C14.6547 47.6289 12.5531 46.9746 11.0581 46.3332C12.5531 45.6919 14.6547 45.0332 17.3631 44.4352C24.0277 42.9532 33.4484 41.9999 44.0001 41.9999C54.5517 41.9999 63.9724 42.9532 70.6371 44.4352C73.3454 45.0376 75.4471 45.6919 76.9421 46.3332C75.4514 46.9746 73.3454 47.6289 70.6371 48.2312C63.9724 49.7132 54.5517 50.6666 44.0001 50.6666C33.4484 50.6666 24.0277 49.7132 17.3631 48.2312Z" fill="currentColor"/>
</svg>