<svg width="225" height="193" viewBox="0 0 225 193" fill="none" xmlns="http://www.w3.org/2000/svg">
<path d="M224 57.23C223.599 71.1566 217.872 84.399 208 94.23L173.25 129C168.189 134.089 162.169 138.123 155.538 140.87C148.907 143.616 141.797 145.02 134.62 145H134.57C127.27 144.995 120.046 143.527 113.323 140.683C106.6 137.839 100.516 133.676 95.4288 128.441C90.3418 123.205 86.3556 117.004 83.7056 110.202C81.0556 103.401 79.7957 96.1368 80.0001 88.84C80.0598 86.7183 80.9598 84.7072 82.5023 83.2491C84.0448 81.791 86.1034 81.0054 88.2251 81.065C90.3468 81.1247 92.358 82.0248 93.816 83.5673C95.2741 85.1098 96.0598 87.1683 96.0001 89.29C95.8544 94.4493 96.7444 99.5854 98.6174 104.395C100.49 109.204 103.308 113.59 106.905 117.292C110.502 120.993 114.804 123.937 119.557 125.948C124.31 127.959 129.419 128.997 134.58 129C139.654 129.012 144.679 128.019 149.367 126.078C154.054 124.137 158.311 121.286 161.89 117.69L196.64 82.94C203.81 75.6801 207.816 65.8785 207.784 55.6751C207.752 45.4717 203.685 35.6954 196.47 28.4805C189.255 21.2655 179.478 17.1981 169.275 17.1662C159.072 17.1343 149.27 21.1404 142.01 28.31L131.01 39.31C129.498 40.747 127.484 41.5363 125.398 41.5096C123.311 41.4829 121.318 40.6423 119.843 39.1671C118.368 37.6919 117.527 35.6987 117.501 33.6126C117.474 31.5265 118.263 29.5125 119.7 28L130.7 17C135.775 11.9233 141.8 7.89618 148.432 5.14859C155.064 2.401 162.172 0.986816 169.35 0.986816C176.528 0.986816 183.636 2.401 190.268 5.14859C196.9 7.89618 202.925 11.9233 208 17C213.257 22.2696 217.386 28.5537 220.137 35.4699C222.887 42.3861 224.202 49.7897 224 57.23ZM93.0001 154.66L82.0001 165.66C78.4127 169.272 74.1428 172.135 69.4389 174.082C64.735 176.028 59.6909 177.02 54.6001 177C46.9631 176.994 39.4993 174.724 33.1517 170.478C26.8042 166.231 21.8577 160.199 18.9372 153.142C16.0168 146.086 15.2535 138.322 16.7438 130.832C18.2341 123.342 21.911 116.461 27.3101 111.06L62.0001 76.31C67.464 70.8173 74.4532 67.0945 82.06 65.6249C89.6668 64.1554 97.5398 65.007 104.656 68.0693C111.773 71.1316 117.804 76.263 121.967 82.7971C126.13 89.3312 128.232 96.966 128 104.71C127.94 106.832 128.726 108.89 130.184 110.433C131.642 111.975 133.653 112.875 135.775 112.935C137.897 112.995 139.955 112.209 141.498 110.751C143.04 109.293 143.94 107.282 144 105.16C144.192 97.7314 142.873 90.3411 140.123 83.4376C137.372 76.5341 133.248 70.2614 128 65C117.752 54.7563 103.855 49.0018 89.3651 49.0018C74.8751 49.0018 60.9783 54.7563 50.7301 65L16.0001 99.75C8.3624 107.385 3.15925 117.112 1.0482 127.703C-1.06286 138.294 0.0129256 149.272 4.1396 159.252C8.26627 169.232 15.2586 177.764 24.233 183.771C33.2074 189.778 43.761 192.989 54.5601 193C61.7388 193.021 68.8503 191.617 75.4829 188.871C82.1155 186.124 88.1374 182.09 93.2001 177L104.2 166C105.495 164.475 106.171 162.52 106.096 160.521C106.021 158.522 105.199 156.624 103.793 155.201C102.388 153.778 100.5 152.933 98.5019 152.833C96.5039 152.732 94.541 153.384 93.0001 154.66Z" fill="black"/>
</svg>
